solid gehäuse_verschluss_sketchup
facet normal 2.8199664825478903e-16 -1.4099832412739513e-15 1.0
  outer loop
    vertex 70.65931836200461 52.65049248981167 19.999999999999996
    vertex 65.6593183620046 53.445411489811654 20.0
    vertex 65.6593183620046 52.65049248981167 19.999999999999996
  endloop
endfacet
facet normal 2.8199664825478903e-16 -1.4099832412739513e-15 1.0
  outer loop
    vertex 65.6593183620046 53.445411489811654 20.0
    vertex 70.65931836200461 52.65049248981167 19.999999999999996
    vertex 70.65931836200461 53.445411489811654 19.999999999999996
  endloop
endfacet
facet normal -0.0 1.0 -0.0
  outer loop
    vertex 41.659318362004605 53.65049248981167 20.0
    vertex 57.6593183620046 53.65049248981167 15.0
    vertex 41.659318362004605 53.65049248981167 15.0
  endloop
endfacet
facet normal -0.0 1.0 -0.0
  outer loop
    vertex 57.6593183620046 53.65049248981167 15.0
    vertex 41.659318362004605 53.65049248981167 20.0
    vertex 65.6593183620046 53.65049248981167 15.0
  endloop
endfacet
facet normal -0.0 1.0 -0.0
  outer loop
    vertex 65.6593183620046 53.65049248981167 15.0
    vertex 41.659318362004605 53.65049248981167 20.0
    vertex 65.6593183620046 53.65049248981167 20.0
  endloop
endfacet
facet normal -0.0 1.0 -0.0
  outer loop
    vertex 57.6593183620046 53.65049248981167 15.0
    vertex 65.6593183620046 53.65049248981167 12.0
    vertex 57.6593183620046 53.65049248981167 12.0
  endloop
endfacet
facet normal -0.0 1.0 -0.0
  outer loop
    vertex 65.6593183620046 53.65049248981167 12.0
    vertex 57.6593183620046 53.65049248981167 15.0
    vertex 65.6593183620046 53.65049248981167 15.0
  endloop
endfacet
facet normal -0.0 -1.0 -0.0
  outer loop
    vertex 93.65931836200461 52.65049248981167 20.0
    vertex 42.659318362004605 52.65049248981167 19.0
    vertex 93.65931836200461 52.65049248981167 19.0
  endloop
endfacet
facet normal -0.0 -1.0 -0.0
  outer loop
    vertex 42.659318362004605 52.65049248981167 19.0
    vertex 93.65931836200461 52.65049248981167 20.0
    vertex 70.65931836200461 52.65049248981167 19.999999999999996
  endloop
endfacet
facet normal -0.0 -1.0 -0.0
  outer loop
    vertex 42.659318362004605 52.65049248981167 19.0
    vertex 65.6593183620046 52.65049248981167 19.999999999999996
    vertex 42.659318362004605 52.65049248981167 20.0
  endloop
endfacet
facet normal -0.0 -1.0 -0.0
  outer loop
    vertex 65.6593183620046 52.65049248981167 19.999999999999996
    vertex 42.659318362004605 52.65049248981167 19.0
    vertex 70.65931836200461 52.65049248981167 19.999999999999996
  endloop
endfacet
facet normal 1.0 0.0 0.0
  outer loop
    vertex 42.659318362004605 52.65049248981167 19.0
    vertex 42.659318362004605 40.65049248981167 20.0
    vertex 42.659318362004605 40.65049248981167 19.0
  endloop
endfacet
facet normal 1.0 0.0 0.0
  outer loop
    vertex 42.659318362004605 40.65049248981167 20.0
    vertex 42.659318362004605 52.65049248981167 19.0
    vertex 42.659318362004605 52.65049248981167 20.0
  endloop
endfacet
facet normal -0.0 1.0 -0.0
  outer loop
    vertex 42.659318362004605 40.65049248981167 20.0
    vertex 93.65931836200461 40.65049248981167 19.0
    vertex 42.659318362004605 40.65049248981167 19.0
  endloop
endfacet
facet normal -0.0 1.0 -0.0
  outer loop
    vertex 93.65931836200461 40.65049248981167 19.0
    vertex 42.659318362004605 40.65049248981167 20.0
    vertex 93.65931836200461 40.65049248981167 20.0
  endloop
endfacet
facet normal 1.0 -0.0 -0.0
  outer loop
    vertex 94.65931836200461 41.15049248981167 15.0
    vertex 94.65931836200461 39.65049248981167 20.0
    vertex 94.65931836200461 39.65049248981167 15.0
  endloop
endfacet
facet normal 1.0 -0.0 -0.0
  outer loop
    vertex 94.65931836200461 39.65049248981167 20.0
    vertex 94.65931836200461 41.15049248981167 15.0
    vertex 94.65931836200461 53.65049248981167 20.0
  endloop
endfacet
facet normal 1.0 -0.0 -0.0
  outer loop
    vertex 94.65931836200461 53.65049248981167 20.0
    vertex 94.65931836200461 41.15049248981167 15.0
    vertex 94.65931836200461 53.65049248981167 15.0
  endloop
endfacet
facet normal -0.0 -0.0 1.0
  outer loop
    vertex 94.65931836200461 41.15049248981167 15.0
    vertex 93.65931836200461 46.15049248981167 15.0
    vertex 93.65931836200461 41.15049248981167 15.0
  endloop
endfacet
facet normal -0.0 -0.0 1.0
  outer loop
    vertex 93.65931836200461 46.15049248981167 15.0
    vertex 94.65931836200461 41.15049248981167 15.0
    vertex 93.65931836200461 52.65049248981167 15.0
  endloop
endfacet
facet normal -0.0 -0.0 1.0
  outer loop
    vertex 93.65931836200461 52.65049248981167 15.0
    vertex 78.65931836200461 53.65049248981167 15.0
    vertex 78.65931836200461 52.65049248981167 15.0
  endloop
endfacet
facet normal -0.0 -0.0 1.0
  outer loop
    vertex 78.65931836200461 53.65049248981167 15.0
    vertex 93.65931836200461 52.65049248981167 15.0
    vertex 94.65931836200461 53.65049248981167 15.0
  endloop
endfacet
facet normal -0.0 -0.0 1.0
  outer loop
    vertex 94.65931836200461 53.65049248981167 15.0
    vertex 93.65931836200461 52.65049248981167 15.0
    vertex 94.65931836200461 41.15049248981167 15.0
  endloop
endfacet
facet normal 0.0 1.0 0.0
  outer loop
    vertex 42.659318362004605 52.65049248981167 16.0
    vertex 57.6593183620046 52.65049248981167 15.0
    vertex 42.659318362004605 52.65049248981167 15.0
  endloop
endfacet
facet normal 0.0 1.0 0.0
  outer loop
    vertex 57.6593183620046 52.65049248981167 15.0
    vertex 42.659318362004605 52.65049248981167 16.0
    vertex 78.65931836200461 52.65049248981167 15.0
  endloop
endfacet
facet normal 0.0 1.0 0.0
  outer loop
    vertex 78.65931836200461 52.65049248981167 15.0
    vertex 42.659318362004605 52.65049248981167 16.0
    vertex 93.65931836200461 52.65049248981167 15.0
  endloop
endfacet
facet normal 0.0 1.0 0.0
  outer loop
    vertex 93.65931836200461 52.65049248981167 15.0
    vertex 42.659318362004605 52.65049248981167 16.0
    vertex 93.65931836200461 52.65049248981167 16.0
  endloop
endfacet
facet normal 0.0 1.0 0.0
  outer loop
    vertex 57.6593183620046 52.65049248981167 15.0
    vertex 78.65931836200461 52.65049248981167 11.000000000000002
    vertex 57.6593183620046 52.65049248981167 11.000000000000002
  endloop
endfacet
facet normal 0.0 1.0 0.0
  outer loop
    vertex 78.65931836200461 52.65049248981167 11.000000000000002
    vertex 57.6593183620046 52.65049248981167 15.0
    vertex 78.65931836200461 52.65049248981167 15.0
  endloop
endfacet
facet normal -1.0 0.0 0.0
  outer loop
    vertex 42.659318362004605 52.65049248981167 16.0
    vertex 42.659318362004605 46.15049248981167 15.0
    vertex 42.659318362004605 46.15049248981167 16.0
  endloop
endfacet
facet normal -1.0 0.0 0.0
  outer loop
    vertex 42.659318362004605 46.15049248981167 15.0
    vertex 42.659318362004605 52.65049248981167 16.0
    vertex 42.659318362004605 52.65049248981167 15.0
  endloop
endfacet
facet normal -0.0 -0.0 1.0
  outer loop
    vertex 42.659318362004605 41.15049248981167 15.0
    vertex 41.659318362004605 53.65049248981167 15.0
    vertex 41.659318362004605 41.15049248981167 15.0
  endloop
endfacet
facet normal -0.0 -0.0 1.0
  outer loop
    vertex 41.659318362004605 53.65049248981167 15.0
    vertex 42.659318362004605 41.15049248981167 15.0
    vertex 42.659318362004605 52.65049248981167 15.0
  endloop
endfacet
facet normal -0.0 -0.0 1.0
  outer loop
    vertex 41.659318362004605 53.65049248981167 15.0
    vertex 42.659318362004605 52.65049248981167 15.0
    vertex 57.6593183620046 53.65049248981167 15.0
  endloop
endfacet
facet normal -0.0 -0.0 1.0
  outer loop
    vertex 42.659318362004605 52.65049248981167 15.0
    vertex 42.659318362004605 41.15049248981167 15.0
    vertex 42.659318362004605 46.15049248981167 15.0
  endloop
endfacet
facet normal -0.0 -0.0 1.0
  outer loop
    vertex 57.6593183620046 53.65049248981167 15.0
    vertex 42.659318362004605 52.65049248981167 15.0
    vertex 57.6593183620046 52.65049248981167 15.0
  endloop
endfacet
facet normal 0.0 0.0 1.0
  outer loop
    vertex 78.65931836200461 52.65049248981167 11.000000000000002
    vertex 57.6593183620046 53.65049248981167 11.000000000000002
    vertex 57.6593183620046 52.65049248981167 11.000000000000002
  endloop
endfacet
facet normal 0.0 0.0 1.0
  outer loop
    vertex 57.6593183620046 53.65049248981167 11.000000000000002
    vertex 78.65931836200461 52.65049248981167 11.000000000000002
    vertex 78.65931836200461 53.65049248981167 11.000000000000002
  endloop
endfacet
facet normal 1.0 0.0 0.0
  outer loop
    vertex 57.6593183620046 53.65049248981167 11.000000000000002
    vertex 57.6593183620046 52.65049248981167 15.0
    vertex 57.6593183620046 52.65049248981167 11.000000000000002
  endloop
endfacet
facet normal 1.0 0.0 0.0
  outer loop
    vertex 57.6593183620046 52.65049248981167 15.0
    vertex 57.6593183620046 53.65049248981167 11.000000000000002
    vertex 57.6593183620046 53.65049248981167 15.0
  endloop
endfacet
facet normal 1.0 0.0 0.0
  outer loop
    vertex 57.6593183620046 53.65049248981167 15.0
    vertex 57.6593183620046 53.65049248981167 11.000000000000002
    vertex 57.6593183620046 53.65049248981167 12.0
  endloop
endfacet
facet normal -1.0 0.0 -0.0
  outer loop
    vertex 78.65931836200461 53.65049248981167 15.0
    vertex 78.65931836200461 52.65049248981167 11.000000000000002
    vertex 78.65931836200461 52.65049248981167 15.0
  endloop
endfacet
facet normal -1.0 0.0 -0.0
  outer loop
    vertex 78.65931836200461 52.65049248981167 11.000000000000002
    vertex 78.65931836200461 53.65049248981167 15.0
    vertex 78.65931836200461 53.65049248981167 11.000000000000002
  endloop
endfacet
facet normal -1.0 0.0 -0.0
  outer loop
    vertex 78.65931836200461 53.65049248981167 11.000000000000002
    vertex 78.65931836200461 53.65049248981167 15.0
    vertex 78.65931836200461 53.65049248981167 12.0
  endloop
endfacet
facet normal -0.0 1.0 -0.0
  outer loop
    vertex 57.6593183620046 53.65049248981167 12.0
    vertex 78.65931836200461 53.65049248981167 11.000000000000002
    vertex 57.6593183620046 53.65049248981167 11.000000000000002
  endloop
endfacet
facet normal -0.0 1.0 -0.0
  outer loop
    vertex 78.65931836200461 53.65049248981167 11.000000000000002
    vertex 57.6593183620046 53.65049248981167 12.0
    vertex 78.65931836200461 53.65049248981167 12.0
  endloop
endfacet
facet normal -0.0 1.0 -0.0
  outer loop
    vertex 78.65931836200461 53.65049248981167 12.0
    vertex 57.6593183620046 53.65049248981167 12.0
    vertex 65.6593183620046 53.65049248981167 12.0
  endloop
endfacet
facet normal -0.0 1.0 -0.0
  outer loop
    vertex 78.65931836200461 53.65049248981167 12.0
    vertex 65.6593183620046 53.65049248981167 12.0
    vertex 70.65931836200461 53.65049248981167 12.0
  endloop
endfacet
facet normal -0.0 1.0 -0.0
  outer loop
    vertex 70.65931836200461 53.65049248981167 15.0
    vertex 78.65931836200461 53.65049248981167 12.0
    vertex 70.65931836200461 53.65049248981167 12.0
  endloop
endfacet
facet normal -0.0 1.0 -0.0
  outer loop
    vertex 78.65931836200461 53.65049248981167 12.0
    vertex 70.65931836200461 53.65049248981167 15.0
    vertex 78.65931836200461 53.65049248981167 15.0
  endloop
endfacet
facet normal -0.0 1.0 -0.0
  outer loop
    vertex 78.65931836200461 53.65049248981167 15.0
    vertex 70.65931836200461 53.65049248981167 15.0
    vertex 70.65931836200461 53.65049248981167 19.999999999999996
  endloop
endfacet
facet normal -0.0 1.0 -0.0
  outer loop
    vertex 78.65931836200461 53.65049248981167 15.0
    vertex 70.65931836200461 53.65049248981167 19.999999999999996
    vertex 94.65931836200461 53.65049248981167 15.0
  endloop
endfacet
facet normal -0.0 1.0 -0.0
  outer loop
    vertex 94.65931836200461 53.65049248981167 15.0
    vertex 70.65931836200461 53.65049248981167 19.999999999999996
    vertex 94.65931836200461 53.65049248981167 20.0
  endloop
endfacet
facet normal -0.0 0.0 1.0
  outer loop
    vertex 70.65931836200461 53.445411489811654 15.0
    vertex 65.6593183620046 53.65049248981167 15.0
    vertex 65.6593183620046 53.445411489811654 15.0
  endloop
endfacet
facet normal -0.0 0.0 1.0
  outer loop
    vertex 65.6593183620046 53.65049248981167 15.0
    vertex 70.65931836200461 53.445411489811654 15.0
    vertex 65.6593183620046 54.65049248981166 15.0
  endloop
endfacet
facet normal -0.0 0.0 1.0
  outer loop
    vertex 65.6593183620046 54.65049248981166 15.0
    vertex 70.65931836200461 53.445411489811654 15.0
    vertex 70.65931836200461 54.65049248981166 15.0
  endloop
endfacet
facet normal -0.0 0.0 1.0
  outer loop
    vertex 70.65931836200461 54.65049248981166 15.0
    vertex 70.65931836200461 53.445411489811654 15.0
    vertex 70.65931836200461 53.65049248981167 15.0
  endloop
endfacet
facet normal 1.0 -0.0 -0.0
  outer loop
    vertex 70.65931836200461 53.9695432468302 12.0
    vertex 70.65931836200461 53.65049248981167 15.0
    vertex 70.65931836200461 53.65049248981167 12.0
  endloop
endfacet
facet normal 1.0 -0.0 -0.0
  outer loop
    vertex 70.65931836200461 53.65049248981167 15.0
    vertex 70.65931836200461 53.9695432468302 12.0
    vertex 70.65931836200461 54.65049248981166 15.0
  endloop
endfacet
facet normal 0.0 0.0 -1.0
  outer loop
    vertex 70.65931836200461 53.9695432468302 12.0
    vertex 65.6593183620046 53.65049248981167 12.0
    vertex 65.6593183620046 53.9695432468302 12.0
  endloop
endfacet
facet normal 0.0 0.0 -1.0
  outer loop
    vertex 65.6593183620046 53.65049248981167 12.0
    vertex 70.65931836200461 53.9695432468302 12.0
    vertex 70.65931836200461 53.65049248981167 12.0
  endloop
endfacet
facet normal -1.0 0.0 0.0
  outer loop
    vertex 65.6593183620046 54.65049248981166 15.0
    vertex 65.6593183620046 53.65049248981167 12.0
    vertex 65.6593183620046 53.65049248981167 15.0
  endloop
endfacet
facet normal -1.0 0.0 0.0
  outer loop
    vertex 65.6593183620046 53.65049248981167 12.0
    vertex 65.6593183620046 54.65049248981166 15.0
    vertex 65.6593183620046 53.9695432468302 12.0
  endloop
endfacet
facet normal -0.0 0.975193861513197 -0.22135250725252678
  outer loop
    vertex 65.6593183620046 54.65049248981166 15.0
    vertex 70.65931836200461 53.9695432468302 12.0
    vertex 65.6593183620046 53.9695432468302 12.0
  endloop
endfacet
facet normal -0.0 0.975193861513197 -0.22135250725252678
  outer loop
    vertex 70.65931836200461 53.9695432468302 12.0
    vertex 65.6593183620046 54.65049248981166 15.0
    vertex 70.65931836200461 54.65049248981166 15.0
  endloop
endfacet
facet normal 0.0 -1.0 0.0
  outer loop
    vertex 43.659318362004605 46.15049248981167 16.0
    vertex 42.659318362004605 46.15049248981167 11.000000000000002
    vertex 43.659318362004605 46.15049248981167 11.000000000000002
  endloop
endfacet
facet normal 0.0 -1.0 0.0
  outer loop
    vertex 42.659318362004605 46.15049248981167 11.000000000000002
    vertex 43.659318362004605 46.15049248981167 16.0
    vertex 42.659318362004605 46.15049248981167 15.0
  endloop
endfacet
facet normal 0.0 -1.0 0.0
  outer loop
    vertex 42.659318362004605 46.15049248981167 15.0
    vertex 43.659318362004605 46.15049248981167 16.0
    vertex 42.659318362004605 46.15049248981167 16.0
  endloop
endfacet
facet normal -0.0 -0.0 1.0
  outer loop
    vertex 43.659318362004605 41.15049248981167 11.000000000000002
    vertex 42.659318362004605 46.15049248981167 11.000000000000002
    vertex 42.659318362004605 41.15049248981167 11.000000000000002
  endloop
endfacet
facet normal -0.0 -0.0 1.0
  outer loop
    vertex 42.659318362004605 46.15049248981167 11.000000000000002
    vertex 43.659318362004605 41.15049248981167 11.000000000000002
    vertex 43.659318362004605 46.15049248981167 11.000000000000002
  endloop
endfacet
facet normal 1.0 -0.0 -0.0
  outer loop
    vertex 42.659318362004605 46.15049248981167 11.000000000000002
    vertex 42.659318362004605 41.15049248981167 15.0
    vertex 42.659318362004605 41.15049248981167 11.000000000000002
  endloop
endfacet
facet normal 1.0 -0.0 -0.0
  outer loop
    vertex 42.659318362004605 41.15049248981167 15.0
    vertex 42.659318362004605 46.15049248981167 11.000000000000002
    vertex 42.659318362004605 46.15049248981167 15.0
  endloop
endfacet
facet normal 1.0 -0.0 -0.0
  outer loop
    vertex 93.65931836200461 52.65049248981167 15.0
    vertex 93.65931836200461 46.15049248981167 16.0
    vertex 93.65931836200461 46.15049248981167 15.0
  endloop
endfacet
facet normal 1.0 -0.0 -0.0
  outer loop
    vertex 93.65931836200461 46.15049248981167 16.0
    vertex 93.65931836200461 52.65049248981167 15.0
    vertex 93.65931836200461 52.65049248981167 16.0
  endloop
endfacet
facet normal 0.0 -1.0 0.0
  outer loop
    vertex 93.65931836200461 46.15049248981167 15.0
    vertex 92.65931836200461 46.15049248981167 11.000000000000002
    vertex 93.65931836200461 46.15049248981167 11.000000000000002
  endloop
endfacet
facet normal 0.0 -1.0 0.0
  outer loop
    vertex 92.65931836200461 46.15049248981167 11.000000000000002
    vertex 93.65931836200461 46.15049248981167 15.0
    vertex 92.65931836200461 46.15049248981167 16.0
  endloop
endfacet
facet normal 0.0 -1.0 0.0
  outer loop
    vertex 92.65931836200461 46.15049248981167 16.0
    vertex 93.65931836200461 46.15049248981167 15.0
    vertex 93.65931836200461 46.15049248981167 16.0
  endloop
endfacet
facet normal 0.9999999994814235 -3.216857129020356e-05 -1.5284801018972264e-06
  outer loop
    vertex 92.65931836200461 41.15049248981167 11.000000000000002
    vertex 92.65913420530502 41.14925908085126 15.0
    vertex 92.65883606661359 41.14726226545293 13.381059760040845
  endloop
endfacet
facet normal 0.9999999994814235 -3.216857129020356e-05 -1.5284801018972264e-06
  outer loop
    vertex 92.65913420530502 41.14925908085126 15.0
    vertex 92.65931836200461 41.15049248981167 11.000000000000002
    vertex 92.65931836200461 41.15049248981167 16.0
  endloop
endfacet
facet normal 0.9999999994814235 -3.216857129020356e-05 -1.5284801018972264e-06
  outer loop
    vertex 92.65931836200461 41.15049248981167 16.0
    vertex 92.65931836200461 41.15049248981167 11.000000000000002
    vertex 92.65931836200461 46.15049248981167 11.000000000000002
  endloop
endfacet
facet normal 0.9999999994814235 -3.216857129020356e-05 -1.5284801018972264e-06
  outer loop
    vertex 92.65931836200461 41.15049248981167 16.0
    vertex 92.65931836200461 46.15049248981167 11.000000000000002
    vertex 92.65931836200461 46.15049248981167 16.0
  endloop
endfacet
facet normal -0.0 -0.0 1.0
  outer loop
    vertex 93.65931836200461 41.15049248981167 11.000000000000002
    vertex 92.65931836200461 46.15049248981167 11.000000000000002
    vertex 92.65931836200461 41.15049248981167 11.000000000000002
  endloop
endfacet
facet normal -0.0 -0.0 1.0
  outer loop
    vertex 92.65931836200461 46.15049248981167 11.000000000000002
    vertex 93.65931836200461 41.15049248981167 11.000000000000002
    vertex 93.65931836200461 46.15049248981167 11.000000000000002
  endloop
endfacet
facet normal -0.9999999994594646 3.198725334534862e-05 -7.608328784003183e-06
  outer loop
    vertex 93.65931836200461 41.15049248981167 15.0
    vertex 93.65931836200461 41.15049248981167 11.000000000000002
    vertex 93.65883606661357 41.14726226545293 13.381059760040845
  endloop
endfacet
facet normal -0.9999999994594646 3.198725334534862e-05 -7.608328784003183e-06
  outer loop
    vertex 93.65931836200461 41.15049248981167 11.000000000000002
    vertex 93.65931836200461 41.15049248981167 15.0
    vertex 93.65931836200461 46.15049248981167 15.0
  endloop
endfacet
facet normal -0.9999999994594646 3.198725334534862e-05 -7.608328784003183e-06
  outer loop
    vertex 93.65931836200461 41.15049248981167 11.000000000000002
    vertex 93.65931836200461 46.15049248981167 15.0
    vertex 93.65931836200461 46.15049248981167 11.000000000000002
  endloop
endfacet
facet normal 1.2971326966641655e-18 7.769929691076133e-17 1.0
  outer loop
    vertex 41.659318362004605 39.65049248981167 20.0
    vertex 42.659318362004605 40.65049248981167 20.0
    vertex 41.659318362004605 53.65049248981167 20.0
  endloop
endfacet
facet normal 1.2971326966641655e-18 7.769929691076133e-17 1.0
  outer loop
    vertex 42.659318362004605 40.65049248981167 20.0
    vertex 41.659318362004605 39.65049248981167 20.0
    vertex 94.65931836200461 39.65049248981167 20.0
  endloop
endfacet
facet normal 1.2971326966641655e-18 7.769929691076133e-17 1.0
  outer loop
    vertex 42.659318362004605 40.65049248981167 20.0
    vertex 94.65931836200461 39.65049248981167 20.0
    vertex 93.65931836200461 40.65049248981167 20.0
  endloop
endfacet
facet normal 1.2971326966641655e-18 7.769929691076133e-17 1.0
  outer loop
    vertex 93.65931836200461 40.65049248981167 20.0
    vertex 94.65931836200461 39.65049248981167 20.0
    vertex 93.65931836200461 52.65049248981167 20.0
  endloop
endfacet
facet normal 1.2971326966641655e-18 7.769929691076133e-17 1.0
  outer loop
    vertex 93.65931836200461 52.65049248981167 20.0
    vertex 70.65931836200461 53.445411489811654 19.999999999999996
    vertex 70.65931836200461 52.65049248981167 19.999999999999996
  endloop
endfacet
facet normal 1.2971326966641655e-18 7.769929691076133e-17 1.0
  outer loop
    vertex 70.65931836200461 53.445411489811654 19.999999999999996
    vertex 93.65931836200461 52.65049248981167 20.0
    vertex 70.65931836200461 53.65049248981167 19.999999999999996
  endloop
endfacet
facet normal 1.2971326966641655e-18 7.769929691076133e-17 1.0
  outer loop
    vertex 70.65931836200461 53.65049248981167 19.999999999999996
    vertex 93.65931836200461 52.65049248981167 20.0
    vertex 94.65931836200461 53.65049248981167 20.0
  endloop
endfacet
facet normal 1.2971326966641655e-18 7.769929691076133e-17 1.0
  outer loop
    vertex 94.65931836200461 53.65049248981167 20.0
    vertex 93.65931836200461 52.65049248981167 20.0
    vertex 94.65931836200461 39.65049248981167 20.0
  endloop
endfacet
facet normal 1.2971326966641655e-18 7.769929691076133e-17 1.0
  outer loop
    vertex 41.659318362004605 53.65049248981167 20.0
    vertex 42.659318362004605 52.65049248981167 20.0
    vertex 65.6593183620046 53.65049248981167 20.0
  endloop
endfacet
facet normal 1.2971326966641655e-18 7.769929691076133e-17 1.0
  outer loop
    vertex 42.659318362004605 52.65049248981167 20.0
    vertex 41.659318362004605 53.65049248981167 20.0
    vertex 42.659318362004605 40.65049248981167 20.0
  endloop
endfacet
facet normal 1.2971326966641655e-18 7.769929691076133e-17 1.0
  outer loop
    vertex 65.6593183620046 53.65049248981167 20.0
    vertex 42.659318362004605 52.65049248981167 20.0
    vertex 65.6593183620046 52.65049248981167 19.999999999999996
  endloop
endfacet
facet normal 1.2971326966641655e-18 7.769929691076133e-17 1.0
  outer loop
    vertex 65.6593183620046 53.65049248981167 20.0
    vertex 65.6593183620046 52.65049248981167 19.999999999999996
    vertex 65.6593183620046 53.445411489811654 20.0
  endloop
endfacet
facet normal 0.0 1.0 0.0
  outer loop
    vertex 65.6593183620046 53.445411489811654 20.0
    vertex 70.65931836200461 53.445411489811654 15.0
    vertex 65.6593183620046 53.445411489811654 15.0
  endloop
endfacet
facet normal 0.0 1.0 0.0
  outer loop
    vertex 70.65931836200461 53.445411489811654 15.0
    vertex 65.6593183620046 53.445411489811654 20.0
    vertex 70.65931836200461 53.445411489811654 19.999999999999996
  endloop
endfacet
facet normal -1.0 -0.0 -0.0
  outer loop
    vertex 70.65931836200461 53.65049248981167 19.999999999999996
    vertex 70.65931836200461 53.445411489811654 15.0
    vertex 70.65931836200461 53.445411489811654 19.999999999999996
  endloop
endfacet
facet normal -1.0 -0.0 -0.0
  outer loop
    vertex 70.65931836200461 53.445411489811654 15.0
    vertex 70.65931836200461 53.65049248981167 19.999999999999996
    vertex 70.65931836200461 53.65049248981167 15.0
  endloop
endfacet
facet normal 1.0 -0.0 -0.0
  outer loop
    vertex 65.6593183620046 53.65049248981167 15.0
    vertex 65.6593183620046 53.445411489811654 20.0
    vertex 65.6593183620046 53.445411489811654 15.0
  endloop
endfacet
facet normal 1.0 -0.0 -0.0
  outer loop
    vertex 65.6593183620046 53.445411489811654 20.0
    vertex 65.6593183620046 53.65049248981167 15.0
    vertex 65.6593183620046 53.65049248981167 20.0
  endloop
endfacet
facet normal 9.003578169752005e-07 -0.9999999928906949 -0.00011923841604715917
  outer loop
    vertex 88.35859206661358 39.328878265452936 13.375791760040844
    vertex 45.659318362004605 39.332108489811674 0.0
    vertex 88.35907436200462 39.332108489811674 0.0
  endloop
endfacet
facet normal 9.003578169752005e-07 -0.9999999928906949 -0.00011923841604715917
  outer loop
    vertex 45.659318362004605 39.332108489811674 0.0
    vertex 88.35859206661358 39.328878265452936 13.375791760040844
    vertex 45.65713672033508 39.32815134213397 14.163986211777653
  endloop
endfacet
facet normal 9.003578169752005e-07 -0.9999999928906949 -0.00011923841604715917
  outer loop
    vertex 45.65713672033508 39.32815134213397 14.163986211777653
    vertex 88.35859206661358 39.328878265452936 13.375791760040844
    vertex 88.35907436200462 39.331590636627155 14.999999964243745
  endloop
endfacet
facet normal 9.003578169752005e-07 -0.9999999928906949 -0.00011923841604715917
  outer loop
    vertex 45.65713672033508 39.32815134213397 14.163986211777653
    vertex 88.35907436200462 39.331590636627155 14.999999964243745
    vertex 45.659318362004605 39.332108489811674 15.0
  endloop
endfacet
facet normal -0.0 1.0 -0.0
  outer loop
    vertex 43.659318362004605 41.15049248981167 16.0
    vertex 45.659318362004605 41.15049248981167 14.981589000000003
    vertex 43.659318362004605 41.15049248981167 14.981589000000003
  endloop
endfacet
facet normal -0.0 1.0 -0.0
  outer loop
    vertex 45.659318362004605 41.15049248981167 14.981589000000003
    vertex 43.659318362004605 41.15049248981167 16.0
    vertex 45.659318362004605 41.15049248981167 16.0
  endloop
endfacet
facet normal -0.9999999452406959 -0.00027912380694929557 -0.0001777878107056144
  outer loop
    vertex 45.65713672033508 39.646535342133966 14.154780711777653
    vertex 45.659318362004605 39.332108489811674 0.0
    vertex 45.65713672033508 39.32815134213397 14.163986211777653
  endloop
endfacet
facet normal -0.9999999452406959 -0.00027912380694929557 -0.0001777878107056144
  outer loop
    vertex 45.659318362004605 39.332108489811674 0.0
    vertex 45.65713672033508 39.646535342133966 14.154780711777653
    vertex 45.65570942217237 39.64515901890564 13.783772010059854
  endloop
endfacet
facet normal -0.9999999452406959 -0.00027912380694929557 -0.0001777878107056144
  outer loop
    vertex 45.65570942217237 39.64515901890564 13.783772010059854
    vertex 45.659318362004605 41.15049248981167 0.0
    vertex 45.659318362004605 39.332108489811674 0.0
  endloop
endfacet
facet normal -0.9999999452406959 -0.00027912380694929557 -0.0001777878107056144
  outer loop
    vertex 45.659318362004605 41.15049248981167 0.0
    vertex 45.65570942217237 39.64515901890564 13.783772010059854
    vertex 45.65570942217237 41.14515901890563 13.774566510059856
  endloop
endfacet
facet normal -1.0 0.0 0.0
  outer loop
    vertex 41.659318362004605 53.65049248981167 20.0
    vertex 41.659318362004605 39.65049248981167 15.0
    vertex 41.659318362004605 39.65049248981167 20.0
  endloop
endfacet
facet normal -1.0 0.0 0.0
  outer loop
    vertex 41.659318362004605 39.65049248981167 15.0
    vertex 41.659318362004605 53.65049248981167 20.0
    vertex 41.659318362004605 41.15049248981167 15.0
  endloop
endfacet
facet normal -1.0 0.0 0.0
  outer loop
    vertex 41.659318362004605 41.15049248981167 15.0
    vertex 41.659318362004605 53.65049248981167 20.0
    vertex 41.659318362004605 53.65049248981167 15.0
  endloop
endfacet
facet normal 0.9999965931596079 -7.544061428296375e-05 -0.0026092102045370434
  outer loop
    vertex 45.65713672033508 39.646535342133966 14.154780711777653
    vertex 45.659318362004605 39.332108489811674 15.0
    vertex 45.65713672033508 39.32815134213397 14.163986211777653
  endloop
endfacet
facet normal 0.9999965931596079 -7.544061428296375e-05 -0.0026092102045370434
  outer loop
    vertex 45.659318362004605 39.332108489811674 15.0
    vertex 45.65713672033508 39.646535342133966 14.154780711777653
    vertex 45.659318362004605 39.65049248981167 14.9907945
  endloop
endfacet
facet normal 5.244696490437069e-15 -1.0 3.382099248304653e-14
  outer loop
    vertex 92.65931836200461 39.650492489811526 14.99982001101931
    vertex 88.3590744664093 39.65049248981154 16.0
    vertex 88.3590744664093 39.65049248981154 14.999449957234868
  endloop
endfacet
facet normal 5.244696490437069e-15 -1.0 3.382099248304653e-14
  outer loop
    vertex 88.3590744664093 39.65049248981154 16.0
    vertex 92.65931836200461 39.650492489811526 14.99982001101931
    vertex 92.65931836200461 39.6504924898116 16.0
  endloop
endfacet
facet normal -1.0 0.0 0.0
  outer loop
    vertex 43.659318362004605 46.15049248981167 16.0
    vertex 43.659318362004605 41.15049248981167 14.981589000000003
    vertex 43.659318362004605 41.15049248981167 16.0
  endloop
endfacet
facet normal -1.0 0.0 0.0
  outer loop
    vertex 43.659318362004605 41.15049248981167 14.981589000000003
    vertex 43.659318362004605 46.15049248981167 16.0
    vertex 43.659318362004605 41.15049248981167 11.000000000000002
  endloop
endfacet
facet normal -1.0 0.0 0.0
  outer loop
    vertex 43.659318362004605 41.15049248981167 11.000000000000002
    vertex 43.659318362004605 46.15049248981167 16.0
    vertex 43.659318362004605 46.15049248981167 11.000000000000002
  endloop
endfacet
facet normal -0.0 -0.0 1.0
  outer loop
    vertex 45.659318362004605 41.15049248981167 16.0
    vertex 43.659318362004605 46.15049248981167 16.0
    vertex 43.659318362004605 41.15049248981167 16.0
  endloop
endfacet
facet normal -0.0 -0.0 1.0
  outer loop
    vertex 43.659318362004605 46.15049248981167 16.0
    vertex 42.659318362004605 52.65049248981167 16.0
    vertex 42.659318362004605 46.15049248981167 16.0
  endloop
endfacet
facet normal -0.0 -0.0 1.0
  outer loop
    vertex 42.659318362004605 52.65049248981167 16.0
    vertex 43.659318362004605 46.15049248981167 16.0
    vertex 93.65931836200461 52.65049248981167 16.0
  endloop
endfacet
facet normal -0.0 -0.0 1.0
  outer loop
    vertex 93.65931836200461 52.65049248981167 16.0
    vertex 43.659318362004605 46.15049248981167 16.0
    vertex 45.659318362004605 41.15049248981167 16.0
  endloop
endfacet
facet normal -0.0 -0.0 1.0
  outer loop
    vertex 93.65931836200461 52.65049248981167 16.0
    vertex 45.659318362004605 41.15049248981167 16.0
    vertex 88.35907436200462 41.15049248981167 16.0
  endloop
endfacet
facet normal -0.0 -0.0 1.0
  outer loop
    vertex 93.65931836200461 52.65049248981167 16.0
    vertex 88.35907436200462 41.15049248981167 16.0
    vertex 92.65931836200461 46.15049248981167 16.0
  endloop
endfacet
facet normal -0.0 -0.0 1.0
  outer loop
    vertex 92.65931836200461 46.15049248981167 16.0
    vertex 88.35907436200462 41.15049248981167 16.0
    vertex 92.65931836200461 41.15049248981167 16.0
  endloop
endfacet
facet normal -0.0 -0.0 1.0
  outer loop
    vertex 93.65931836200461 52.65049248981167 16.0
    vertex 92.65931836200461 46.15049248981167 16.0
    vertex 93.65931836200461 46.15049248981167 16.0
  endloop
endfacet
facet normal -0.0 1.0 -0.0
  outer loop
    vertex 42.659318362004605 41.15049248981167 15.0
    vertex 43.659318362004605 41.15049248981167 11.000000000000002
    vertex 42.659318362004605 41.15049248981167 11.000000000000002
  endloop
endfacet
facet normal -0.0 1.0 -0.0
  outer loop
    vertex 43.659318362004605 41.15049248981167 11.000000000000002
    vertex 42.659318362004605 41.15049248981167 15.0
    vertex 42.99265169533793 41.15049248981167 14.993863000000001
  endloop
endfacet
facet normal -0.0 1.0 -0.0
  outer loop
    vertex 43.659318362004605 41.15049248981167 11.000000000000002
    vertex 42.99265169533793 41.15049248981167 14.993863000000001
    vertex 43.659318362004605 41.15049248981167 14.981589000000003
  endloop
endfacet
facet normal -0.003875946863643164 -0.0035206517344752997 -0.9999862909296682
  outer loop
    vertex 42.659318362004605 41.15049248981167 15.0
    vertex 41.659318362004605 39.65049248981167 15.0
    vertex 41.659318362004605 41.15049248981167 15.0
  endloop
endfacet
facet normal -0.003875946863643164 -0.0035206517344752997 -0.9999862909296682
  outer loop
    vertex 41.659318362004605 39.65049248981167 15.0
    vertex 42.659318362004605 41.15049248981167 15.0
    vertex 45.659318362004605 39.65049248981167 14.9907945
  endloop
endfacet
facet normal -0.003875946863643164 -0.0035206517344752997 -0.9999862909296682
  outer loop
    vertex 45.659318362004605 39.65049248981167 14.9907945
    vertex 42.659318362004605 41.15049248981167 15.0
    vertex 42.99265169533793 41.15049248981167 14.993863000000001
  endloop
endfacet
facet normal -0.003875946863643164 -0.0035206517344752997 -0.9999862909296682
  outer loop
    vertex 45.659318362004605 39.65049248981167 14.9907945
    vertex 42.99265169533793 41.15049248981167 14.993863000000001
    vertex 43.659318362004605 41.15049248981167 14.981589000000003
  endloop
endfacet
facet normal -0.003875946863643164 -0.0035206517344752997 -0.9999862909296682
  outer loop
    vertex 45.659318362004605 39.65049248981167 14.9907945
    vertex 43.659318362004605 41.15049248981167 14.981589000000003
    vertex 45.659318362004605 41.15049248981167 14.981589000000003
  endloop
endfacet
facet normal -0.0 1.0 -0.0
  outer loop
    vertex 43.659318362004605 41.15049248981167 16.0
    vertex 45.659318362004605 41.15049248981167 14.981589000000003
    vertex 43.659318362004605 41.15049248981167 14.981589000000003
  endloop
endfacet
facet normal -0.0 1.0 -0.0
  outer loop
    vertex 45.659318362004605 41.15049248981167 14.981589000000003
    vertex 43.659318362004605 41.15049248981167 16.0
    vertex 45.659318362004605 41.15049248981167 16.0
  endloop
endfacet
facet normal 0.9999956263262406 5.082979010016731e-05 -0.0029571514540238544
  outer loop
    vertex 45.65570942217237 41.14515901890563 13.774566510059856
    vertex 45.65713672033508 39.646535342133966 14.154780711777653
    vertex 45.65570942217237 39.64515901890564 13.783772010059854
  endloop
endfacet
facet normal 0.9999956263262406 5.082979010016731e-05 -0.0029571514540238544
  outer loop
    vertex 45.65713672033508 39.646535342133966 14.154780711777653
    vertex 45.65570942217237 41.14515901890563 13.774566510059856
    vertex 45.659318362004605 39.65049248981167 14.9907945
  endloop
endfacet
facet normal 0.9999956263262406 5.082979010016731e-05 -0.0029571514540238544
  outer loop
    vertex 45.659318362004605 39.65049248981167 14.9907945
    vertex 45.65570942217237 41.14515901890563 13.774566510059856
    vertex 45.659318362004605 41.15049248981167 14.981589000000003
  endloop
endfacet
facet normal 0.0 0.0 -1.0
  outer loop
    vertex 88.35907436200462 41.15049248981167 0.0
    vertex 45.659318362004605 39.332108489811674 0.0
    vertex 45.659318362004605 41.15049248981167 0.0
  endloop
endfacet
facet normal 0.0 0.0 -1.0
  outer loop
    vertex 45.659318362004605 39.332108489811674 0.0
    vertex 88.35907436200462 41.15049248981167 0.0
    vertex 88.35907436200462 39.332108489811674 0.0
  endloop
endfacet
facet normal -1.0346761635558631e-05 0.9999999969995843 7.677093151250771e-05
  outer loop
    vertex 45.65570942217237 41.14515901890563 13.774566510059856
    vertex 88.35907436200462 41.15049248981167 0.0
    vertex 45.659318362004605 41.15049248981167 0.0
  endloop
endfacet
facet normal -1.0346761635558631e-05 0.9999999969995843 7.677093151250771e-05
  outer loop
    vertex 88.35907436200462 41.15049248981167 0.0
    vertex 45.65570942217237 41.14515901890563 13.774566510059856
    vertex 88.35859206661358 41.14726226545293 13.375791760040844
  endloop
endfacet
facet normal -1.0346761635558631e-05 0.9999999969995843 7.677093151250771e-05
  outer loop
    vertex 88.35859206661358 41.14726226545293 13.375791760040844
    vertex 45.65570942217237 41.14515901890563 13.774566510059856
    vertex 88.35898247015875 41.149260879849535 14.999449974142584
  endloop
endfacet
facet normal -1.0346761635558631e-05 0.9999999969995843 7.677093151250771e-05
  outer loop
    vertex 88.35898247015875 41.149260879849535 14.999449974142584
    vertex 45.65570942217237 41.14515901890563 13.774566510059856
    vertex 45.659318362004605 41.15049248981167 14.981589000000003
  endloop
endfacet
facet normal -1.0346761635558631e-05 0.9999999969995843 7.677093151250771e-05
  outer loop
    vertex 88.35898247015875 41.149260879849535 14.999449974142584
    vertex 45.659318362004605 41.15049248981167 14.981589000000003
    vertex 45.659318362004605 41.15049248981167 16.0
  endloop
endfacet
facet normal -1.0346761635558631e-05 0.9999999969995843 7.677093151250771e-05
  outer loop
    vertex 88.35898247015875 41.149260879849535 14.999449974142584
    vertex 45.659318362004605 41.15049248981167 16.0
    vertex 88.35907436200462 41.15049248981167 16.0
  endloop
endfacet
facet normal 0.9999999996905056 -2.4861075100401194e-07 2.4878250183161776e-05
  outer loop
    vertex 88.35907436200462 39.332108489811674 0.0
    vertex 88.35859206661358 41.14726226545293 13.375791760040844
    vertex 88.35859206661358 39.328878265452936 13.375791760040844
  endloop
endfacet
facet normal 0.9999999996905056 -2.4861075100401194e-07 2.4878250183161776e-05
  outer loop
    vertex 88.35859206661358 41.14726226545293 13.375791760040844
    vertex 88.35907436200462 39.332108489811674 0.0
    vertex 88.35907436200462 41.15049248981167 0.0
  endloop
endfacet
facet normal -1.012936294064619e-19 -0.9999990797746575 -0.001356631799173162
  outer loop
    vertex 93.65883606661357 41.14726226545293 13.381059760040845
    vertex 92.65931836200461 41.15049248981167 11.000000000000002
    vertex 93.65931836200461 41.15049248981167 11.000000000000002
  endloop
endfacet
facet normal -1.012936294064619e-19 -0.9999990797746575 -0.001356631799173162
  outer loop
    vertex 92.65931836200461 41.15049248981167 11.000000000000002
    vertex 93.65883606661357 41.14726226545293 13.381059760040845
    vertex 92.65883606661359 41.14726226545293 13.381059760040845
  endloop
endfacet
facet normal -4.6967420183474006e-05 -3.131161373192644e-05 0.9999999984068222
  outer loop
    vertex 93.65931837965145 39.65049248981152 14.999906065159484
    vertex 94.65931836200461 41.15049248981167 15.0
    vertex 93.65931836200461 41.15049248981167 15.0
  endloop
endfacet
facet normal -4.6967420183474006e-05 -3.131161373192644e-05 0.9999999984068222
  outer loop
    vertex 94.65931836200461 41.15049248981167 15.0
    vertex 93.65931837965145 39.65049248981152 14.999906065159484
    vertex 94.65931836200461 39.65049248981167 15.0
  endloop
endfacet
facet normal -0.00011175111038153335 0.01429514457099472 0.9998978129555959
  outer loop
    vertex 88.35907436200462 39.331590636627155 14.999999964243745
    vertex 45.659318362004605 39.65049248981167 14.9907945
    vertex 45.659318362004605 39.332108489811674 15.0
  endloop
endfacet
facet normal -0.00011175111038153335 0.01429514457099472 0.9998978129555959
  outer loop
    vertex 45.659318362004605 39.65049248981167 14.9907945
    vertex 88.35907436200462 39.331590636627155 14.999999964243745
    vertex 88.35898247015875 39.604330879849535 14.999449974142584
  endloop
endfacet
facet normal -0.00011175111038153335 0.01429514457099472 0.9998978129555959
  outer loop
    vertex 88.3590744664093 39.65049248981154 14.999449957234868
    vertex 45.659318362004605 39.65049248981167 14.9907945
    vertex 88.35898247015875 39.604330879849535 14.999449974142584
  endloop
endfacet
facet normal 0.9999999647479719 2.2088685094918712e-05 -0.00026460564062726733
  outer loop
    vertex 88.35859206661358 41.14726226545293 13.375791760040844
    vertex 88.35907436200462 39.331590636627155 14.999999964243745
    vertex 88.35859206661358 39.328878265452936 13.375791760040844
  endloop
endfacet
facet normal 0.9999999647479719 2.2088685094918712e-05 -0.00026460564062726733
  outer loop
    vertex 88.35907436200462 39.331590636627155 14.999999964243745
    vertex 88.35859206661358 41.14726226545293 13.375791760040844
    vertex 88.35898247015875 39.604330879849535 14.999449974142584
  endloop
endfacet
facet normal 0.9999999647479719 2.2088685094918712e-05 -0.00026460564062726733
  outer loop
    vertex 88.35898247015875 39.604330879849535 14.999449974142584
    vertex 88.35859206661358 41.14726226545293 13.375791760040844
    vertex 88.3590744664093 39.65049248981154 14.999449957234868
  endloop
endfacet
facet normal 0.9999999647479719 2.2088685094918712e-05 -0.00026460564062726733
  outer loop
    vertex 88.3590744664093 39.65049248981154 14.999449957234868
    vertex 88.35859206661358 41.14726226545293 13.375791760040844
    vertex 88.35898247015875 41.149260879849535 14.999449974142584
  endloop
endfacet
facet normal 0.9999999984735262 3.0700236861343785e-05 -4.5939559499136794e-05
  outer loop
    vertex 88.35898247015875 41.149260879849535 14.999449974142584
    vertex 88.3590744664093 39.65049248981154 16.0
    vertex 88.3590744664093 39.65049248981154 14.999449957234868
  endloop
endfacet
facet normal 0.9999999984735262 3.0700236861343785e-05 -4.5939559499136794e-05
  outer loop
    vertex 88.3590744664093 39.65049248981154 16.0
    vertex 88.35898247015875 41.149260879849535 14.999449974142584
    vertex 88.35907436200462 41.15049248981167 16.0
  endloop
endfacet
facet normal -0.0006167035490297419 0.9999985070343861 -0.001614188877330022
  outer loop
    vertex 92.65913420530502 41.14925908085126 15.0
    vertex 93.65883606661357 41.14726226545293 13.381059760040845
    vertex 92.65883606661359 41.14726226545293 13.381059760040845
  endloop
endfacet
facet normal -0.0006167035490297419 0.9999985070343861 -0.001614188877330022
  outer loop
    vertex 93.65883606661357 41.14726226545293 13.381059760040845
    vertex 92.65913420530502 41.14925908085126 15.0
    vertex 93.65931836200461 41.15049248981167 15.0
  endloop
endfacet
facet normal -4.296281773012476e-05 -9.133631554395005e-05 0.999999994905937
  outer loop
    vertex 92.65931836200461 39.650492489811526 14.99982001101931
    vertex 93.65931836200461 41.15049248981167 15.0
    vertex 92.65913420530502 41.14925908085126 15.0
  endloop
endfacet
facet normal -4.296281773012476e-05 -9.133631554395005e-05 0.999999994905937
  outer loop
    vertex 93.65931836200461 41.15049248981167 15.0
    vertex 92.65931836200461 39.650492489811526 14.99982001101931
    vertex 93.65931837965145 39.65049248981152 14.999906065159484
  endloop
endfacet
facet normal 0.9999999938743978 6.139106874865883e-05 -9.20996275603501e-05
  outer loop
    vertex 92.65913420530502 41.14925908085126 15.0
    vertex 92.65931836200461 39.6504924898116 16.0
    vertex 92.65931836200461 39.650492489811526 14.99982001101931
  endloop
endfacet
facet normal 0.9999999938743978 6.139106874865883e-05 -9.20996275603501e-05
  outer loop
    vertex 92.65931836200461 39.6504924898116 16.0
    vertex 92.65913420530502 41.14925908085126 15.0
    vertex 92.65931836200461 41.15049248981167 16.0
  endloop
endfacet
facet normal -1.5062826347922661e-15 -1.0 1.1738769307323876e-14
  outer loop
    vertex 93.65931837965145 39.65049248981152 14.999906065159484
    vertex 92.65931836200461 39.6504924898116 16.0
    vertex 92.65931836200461 39.650492489811526 14.99982001101931
  endloop
endfacet
facet normal -1.5062826347922661e-15 -1.0 1.1738769307323876e-14
  outer loop
    vertex 92.65931836200461 39.6504924898116 16.0
    vertex 93.65931837965145 39.65049248981152 14.999906065159484
    vertex 94.65931836200461 39.65049248981167 15.0
  endloop
endfacet
facet normal -1.5062826347922661e-15 -1.0 1.1738769307323876e-14
  outer loop
    vertex 92.65931836200461 39.6504924898116 16.0
    vertex 94.65931836200461 39.65049248981167 15.0
    vertex 94.65931836200461 39.65049248981167 20.0
  endloop
endfacet
facet normal -1.5062826347922661e-15 -1.0 1.1738769307323876e-14
  outer loop
    vertex 92.65931836200461 39.6504924898116 16.0
    vertex 94.65931836200461 39.65049248981167 20.0
    vertex 88.3590744664093 39.65049248981154 16.0
  endloop
endfacet
facet normal -1.5062826347922661e-15 -1.0 1.1738769307323876e-14
  outer loop
    vertex 88.3590744664093 39.65049248981154 14.999449957234868
    vertex 41.659318362004605 39.65049248981167 15.0
    vertex 45.659318362004605 39.65049248981167 14.9907945
  endloop
endfacet
facet normal -1.5062826347922661e-15 -1.0 1.1738769307323876e-14
  outer loop
    vertex 41.659318362004605 39.65049248981167 15.0
    vertex 88.3590744664093 39.65049248981154 14.999449957234868
    vertex 88.3590744664093 39.65049248981154 16.0
  endloop
endfacet
facet normal -1.5062826347922661e-15 -1.0 1.1738769307323876e-14
  outer loop
    vertex 41.659318362004605 39.65049248981167 15.0
    vertex 88.3590744664093 39.65049248981154 16.0
    vertex 41.659318362004605 39.65049248981167 20.0
  endloop
endfacet
facet normal -1.5062826347922661e-15 -1.0 1.1738769307323876e-14
  outer loop
    vertex 41.659318362004605 39.65049248981167 20.0
    vertex 88.3590744664093 39.65049248981154 16.0
    vertex 94.65931836200461 39.65049248981167 20.0
  endloop
endfacet
facet normal -0.0 -0.0 1.0
  outer loop
    vertex 88.3590744664093 39.65049248981154 16.0
    vertex 92.65931836200461 41.15049248981167 16.0
    vertex 88.35907436200462 41.15049248981167 16.0
  endloop
endfacet
facet normal -0.0 -0.0 1.0
  outer loop
    vertex 92.65931836200461 41.15049248981167 16.0
    vertex 88.3590744664093 39.65049248981154 16.0
    vertex 92.65931836200461 39.6504924898116 16.0
  endloop
endfacet
facet normal 2.879745776485089e-07 0.9999992408790016 -0.0012321693624084804
  outer loop
    vertex 88.35907436200462 41.15049248981167 16.0
    vertex 92.65913420530502 41.14925908085126 15.0
    vertex 88.35898247015875 41.149260879849535 14.999449974142584
  endloop
endfacet
facet normal 2.879745776485089e-07 0.9999992408790016 -0.0012321693624084804
  outer loop
    vertex 92.65913420530502 41.14925908085126 15.0
    vertex 88.35907436200462 41.15049248981167 16.0
    vertex 92.65931836200461 41.15049248981167 16.0
  endloop
endfacet
facet normal -0.00010698087086055736 -6.0061124641544434e-05 0.9999999924738773
  outer loop
    vertex 88.3590744664093 39.65049248981154 14.999449957234868
    vertex 92.65913420530502 41.14925908085126 15.0
    vertex 88.35898247015875 41.149260879849535 14.999449974142584
  endloop
endfacet
facet normal -0.00010698087086055736 -6.0061124641544434e-05 0.9999999924738773
  outer loop
    vertex 92.65913420530502 41.14925908085126 15.0
    vertex 88.3590744664093 39.65049248981154 14.999449957234868
    vertex 92.65931836200461 39.650492489811526 14.99982001101931
  endloop
endfacet
facet normal -0.0 -0.0 1.0
  outer loop
    vertex 93.65931836200461 40.65049248981167 19.0
    vertex 42.659318362004605 52.65049248981167 19.0
    vertex 42.659318362004605 40.65049248981167 19.0
  endloop
endfacet
facet normal -0.0 -0.0 1.0
  outer loop
    vertex 42.659318362004605 52.65049248981167 19.0
    vertex 93.65931836200461 40.65049248981167 19.0
    vertex 93.65931836200461 52.65049248981167 19.0
  endloop
endfacet
facet normal -1.0 0.0 0.0
  outer loop
    vertex 93.65931836200461 52.65049248981167 20.0
    vertex 93.65931836200461 40.65049248981167 19.0
    vertex 93.65931836200461 40.65049248981167 20.0
  endloop
endfacet
facet normal -1.0 0.0 0.0
  outer loop
    vertex 93.65931836200461 40.65049248981167 19.0
    vertex 93.65931836200461 52.65049248981167 20.0
    vertex 93.65931836200461 52.65049248981167 19.0
  endloop
endfacet
endsolid gehäuse_verschluss_sketchup
