solid lüsterklemmenhalter_sketchup
facet normal 1.0 0.0 5.551115123125783e-17
  outer loop
    vertex 34.991735630692936 45.00841238056293 1.4099832412739487e-15
    vertex 34.991735630692936 0.008412380562922194 5.000000000000002
    vertex 34.991735630692936 0.008412380562922194 1.4099832412739487e-15
  endloop
endfacet
facet normal 1.0 0.0 5.551115123125783e-17
  outer loop
    vertex 34.991735630692936 0.008412380562922194 5.000000000000002
    vertex 34.991735630692936 45.00841238056293 1.4099832412739487e-15
    vertex 34.991735630692936 45.00841238056293 5.000000000000002
  endloop
endfacet
facet normal 5.551115123125783e-17 0.0 -1.0
  outer loop
    vertex 19.99173563069294 0.008412380562922194 0.0
    vertex 34.991735630692936 45.00841238056293 1.4099832412739487e-15
    vertex 34.991735630692936 0.008412380562922194 1.4099832412739487e-15
  endloop
endfacet
facet normal 5.551115123125783e-17 0.0 -1.0
  outer loop
    vertex 34.991735630692936 45.00841238056293 1.4099832412739487e-15
    vertex 19.99173563069294 0.008412380562922194 0.0
    vertex 19.99173563069294 45.00841238056293 0.0
  endloop
endfacet
facet normal 0.316227766016838 0.0 0.948683298050514
  outer loop
    vertex 19.99173563069294 45.00841238056293 10.0
    vertex 34.991735630692936 0.008412380562922194 5.000000000000002
    vertex 34.991735630692936 45.00841238056293 5.000000000000002
  endloop
endfacet
facet normal 0.316227766016838 0.0 0.948683298050514
  outer loop
    vertex 34.991735630692936 0.008412380562922194 5.000000000000002
    vertex 19.99173563069294 45.00841238056293 10.0
    vertex 19.99173563069294 0.008412380562922194 10.0
  endloop
endfacet
facet normal -1.0 0.0 -5.551115123125783e-17
  outer loop
    vertex 19.99173563069294 45.00841238056293 10.0
    vertex 19.99173563069294 0.008412380562922194 0.0
    vertex 19.99173563069294 0.008412380562922194 10.0
  endloop
endfacet
facet normal -1.0 0.0 -5.551115123125783e-17
  outer loop
    vertex 19.99173563069294 0.008412380562922194 0.0
    vertex 19.99173563069294 45.00841238056293 10.0
    vertex 19.99173563069294 45.00841238056293 0.0
  endloop
endfacet
facet normal 0.0 1.0 0.0
  outer loop
    vertex 34.991735630692936 45.00841238056293 5.000000000000002
    vertex 19.99173563069294 45.00841238056293 0.0
    vertex 19.99173563069294 45.00841238056293 10.0
  endloop
endfacet
facet normal 0.0 1.0 0.0
  outer loop
    vertex 19.99173563069294 45.00841238056293 0.0
    vertex 34.991735630692936 45.00841238056293 5.000000000000002
    vertex 34.991735630692936 45.00841238056293 1.4099832412739487e-15
  endloop
endfacet
facet normal 0.0 -1.0 0.0
  outer loop
    vertex 34.991735630692936 0.008412380562922194 1.4099832412739487e-15
    vertex 19.991735630692943 0.008412380562922194 10.0
    vertex 19.991735630692943 0.008412380562922194 0.0
  endloop
endfacet
facet normal 0.0 -1.0 0.0
  outer loop
    vertex 19.991735630692943 0.008412380562922194 10.0
    vertex 34.991735630692936 0.008412380562922194 1.4099832412739487e-15
    vertex 34.991735630692936 0.008412380562922194 5.000000000000002
  endloop
endfacet
facet normal 1.0 0.0 5.551115123125783e-17
  outer loop
    vertex 54.907037210152744 45.01557215298267 -1.4099832412739487e-15
    vertex 54.907037210152744 0.015572152982659347 4.999999999999998
    vertex 54.907037210152744 0.015572152982659347 -1.4099832412739487e-15
  endloop
endfacet
facet normal 1.0 0.0 5.551115123125783e-17
  outer loop
    vertex 54.907037210152744 0.015572152982659347 4.999999999999998
    vertex 54.907037210152744 45.01557215298267 -1.4099832412739487e-15
    vertex 54.907037210152744 45.01557215298267 4.999999999999998
  endloop
endfacet
facet normal 5.551115123125783e-17 0.0 -1.0
  outer loop
    vertex 39.90703721015275 0.015572152982659347 -2.8199664825478975e-15
    vertex 54.907037210152744 45.01557215298267 -1.4099832412739487e-15
    vertex 54.907037210152744 0.015572152982659347 -1.4099832412739487e-15
  endloop
endfacet
facet normal 5.551115123125783e-17 0.0 -1.0
  outer loop
    vertex 54.907037210152744 45.01557215298267 -1.4099832412739487e-15
    vertex 39.90703721015275 0.015572152982659347 -2.8199664825478975e-15
    vertex 39.90703721015275 45.01557215298267 -2.8199664825478975e-15
  endloop
endfacet
facet normal 0.316227766016838 0.0 0.948683298050514
  outer loop
    vertex 39.90703721015275 45.01557215298267 9.999999999999996
    vertex 54.907037210152744 0.015572152982659347 4.999999999999998
    vertex 54.907037210152744 45.01557215298267 4.999999999999998
  endloop
endfacet
facet normal 0.316227766016838 0.0 0.948683298050514
  outer loop
    vertex 54.907037210152744 0.015572152982659347 4.999999999999998
    vertex 39.90703721015275 45.01557215298267 9.999999999999996
    vertex 39.90703721015275 0.015572152982659347 9.999999999999996
  endloop
endfacet
facet normal -1.0 0.0 -5.551115123125783e-17
  outer loop
    vertex 39.90703721015275 45.01557215298267 9.999999999999996
    vertex 39.90703721015275 0.015572152982659347 -2.8199664825478975e-15
    vertex 39.90703721015275 0.015572152982659347 9.999999999999996
  endloop
endfacet
facet normal -1.0 0.0 -5.551115123125783e-17
  outer loop
    vertex 39.90703721015275 0.015572152982659347 -2.8199664825478975e-15
    vertex 39.90703721015275 45.01557215298267 9.999999999999996
    vertex 39.90703721015275 45.01557215298267 -2.8199664825478975e-15
  endloop
endfacet
facet normal 0.0 1.0 0.0
  outer loop
    vertex 54.907037210152744 45.01557215298267 4.999999999999998
    vertex 39.90703721015275 45.01557215298267 -2.8199664825478975e-15
    vertex 39.90703721015275 45.01557215298267 9.999999999999996
  endloop
endfacet
facet normal 0.0 1.0 0.0
  outer loop
    vertex 39.90703721015275 45.01557215298267 -2.8199664825478975e-15
    vertex 54.907037210152744 45.01557215298267 4.999999999999998
    vertex 54.907037210152744 45.01557215298267 -1.4099832412739487e-15
  endloop
endfacet
facet normal 0.0 -1.0 0.0
  outer loop
    vertex 54.907037210152744 0.015572152982659347 -1.4099832412739487e-15
    vertex 39.90703721015275 0.015572152982659347 9.999999999999996
    vertex 39.90703721015275 0.015572152982659347 -2.8199664825478975e-15
  endloop
endfacet
facet normal 0.0 -1.0 0.0
  outer loop
    vertex 39.90703721015275 0.015572152982659347 9.999999999999996
    vertex 54.907037210152744 0.015572152982659347 -1.4099832412739487e-15
    vertex 54.907037210152744 0.015572152982659347 4.999999999999998
  endloop
endfacet
facet normal 1.0 0.0 5.551115123125783e-17
  outer loop
    vertex 73.48381876058599 45.02011958664978 1.4099832412739487e-15
    vertex 73.48381876058599 0.02011958664976614 5.000000000000002
    vertex 73.48381876058599 0.02011958664976614 1.4099832412739487e-15
  endloop
endfacet
facet normal 1.0 0.0 5.551115123125783e-17
  outer loop
    vertex 73.48381876058599 0.02011958664976614 5.000000000000002
    vertex 73.48381876058599 45.02011958664978 1.4099832412739487e-15
    vertex 73.48381876058599 45.02011958664978 5.000000000000002
  endloop
endfacet
facet normal 5.551115123125783e-17 0.0 -1.0
  outer loop
    vertex 58.483818760586 0.02011958664976614 0.0
    vertex 73.48381876058599 45.02011958664978 1.4099832412739487e-15
    vertex 73.48381876058599 0.02011958664976614 1.4099832412739487e-15
  endloop
endfacet
facet normal 5.551115123125783e-17 0.0 -1.0
  outer loop
    vertex 73.48381876058599 45.02011958664978 1.4099832412739487e-15
    vertex 58.483818760586 0.02011958664976614 0.0
    vertex 58.483818760586 45.02011958664978 0.0
  endloop
endfacet
facet normal 0.316227766016838 0.0 0.948683298050514
  outer loop
    vertex 58.483818760586 45.02011958664978 10.0
    vertex 73.48381876058599 0.02011958664976614 5.000000000000002
    vertex 73.48381876058599 45.02011958664978 5.000000000000002
  endloop
endfacet
facet normal 0.316227766016838 0.0 0.948683298050514
  outer loop
    vertex 73.48381876058599 0.02011958664976614 5.000000000000002
    vertex 58.483818760586 45.02011958664978 10.0
    vertex 58.483818760586 0.02011958664976614 10.0
  endloop
endfacet
facet normal -1.0 0.0 -5.551115123125783e-17
  outer loop
    vertex 58.483818760586 45.02011958664978 10.0
    vertex 58.483818760586 0.02011958664976614 0.0
    vertex 58.483818760586 0.02011958664976614 10.0
  endloop
endfacet
facet normal -1.0 0.0 -5.551115123125783e-17
  outer loop
    vertex 58.483818760586 0.02011958664976614 0.0
    vertex 58.483818760586 45.02011958664978 10.0
    vertex 58.483818760586 45.02011958664978 0.0
  endloop
endfacet
facet normal 0.0 1.0 0.0
  outer loop
    vertex 73.48381876058599 45.02011958664978 5.000000000000002
    vertex 58.483818760586 45.02011958664978 0.0
    vertex 58.483818760586 45.02011958664978 10.0
  endloop
endfacet
facet normal 0.0 1.0 0.0
  outer loop
    vertex 58.483818760586 45.02011958664978 0.0
    vertex 73.48381876058599 45.02011958664978 5.000000000000002
    vertex 73.48381876058599 45.02011958664978 1.4099832412739487e-15
  endloop
endfacet
facet normal 0.0 -1.0 0.0
  outer loop
    vertex 73.48381876058599 0.02011958664976614 1.4099832412739487e-15
    vertex 58.483818760586 0.02011958664976614 10.0
    vertex 58.483818760586 0.02011958664976614 0.0
  endloop
endfacet
facet normal 0.0 -1.0 0.0
  outer loop
    vertex 58.483818760586 0.02011958664976614 10.0
    vertex 73.48381876058599 0.02011958664976614 1.4099832412739487e-15
    vertex 73.48381876058599 0.02011958664976614 5.000000000000002
  endloop
endfacet
endsolid lüsterklemmenhalter_sketchup
